# xmcd
#
# Track frame offsets: 
#        150
#        13995
#        36540
#        52389
#        70571
#        82653
#        98101
#        115011
#        129932
#        148470
#        164870
#        179527
#        190328
#        205857
#        223109
#        236980
#        251679
#        272330
#        285934
#        304087
#        326107
#        340179
#
# Disc length: 4743 seconds
#
# Revision: 10
# Processed by: cddbd v1.5.2PL0 Copyright (c) Steve Scherf et al.
# Submitted via: ExactAudioCopy v0.99pb5
#
DISCID=57128516
DTITLE=Jools Holland RBO - 1 Small World Big Band (2001)
DYEAR=2001
DGENRE=Rock
TTITLE0=(Sting) Seventh Son
TTITLE1=(George Harrison) Horse To Water
TTITLE2=(Paul Weller) Will It Go Round In Circles
TTITLE3=(Sam Brown) Valentine Moon
TTITLE4=(Joe Strummer) The Return Of The Blues Cowboy
TTITLE5=(Dr John) The Hand That Changed It's Mind
TTITLE6=(Ruby Turner) Nobody But You
TTITLE7=(Stereophonics) Revolution
TTITLE8=(Mica Paris and David Gilmour) I Put A Spell On You
TTITLE9=(Suggs) Oranges and Lemons Again
TTITLE10=(Eric Bibb) All That You Are
TTITLE11=(Mark Knopfler) Mademoiselle Will Decide
TTITLE12=(Van Morrison) Back O' Town Blues
TTITLE13=(Chris Difford) Town and Country Rhythm and Blues
TTITLE14=(John Cale) I Wanna Be Around
TTITLE15=(Steve Winwood) I'm Ready
TTITLE16=(Marc Almond) Say Hello, Wave Goodbye
TTITLE17=(Mick Hucknall) T Bone Shuffle
TTITLE18=(Paul Carrack) It's So Blue
TTITLE19=(Taj Mahal) Outskirts Of Town
TTITLE20=(Jamiroquai) I'm In The Mood For Love
TTITLE21=(Eric Clapton) What Would I Do Without You
EXTD=2001\n\n\n YEAR: 2001 ID3G: 0
EXTT0=
EXTT1=
EXTT2=
EXTT3=
EXTT4=
EXTT5=
EXTT6=
EXTT7=
EXTT8=
EXTT9=
EXTT10=
EXTT11=
EXTT12=
EXTT13=
EXTT14=
EXTT15=
EXTT16=
EXTT17=
EXTT18=
EXTT19=
EXTT20=
EXTT21=
PLAYORDER=
